<mxfile host="app.diagrams.net" agent="Mozilla/5.0 (Windows NT 10.0; Win64; x64) AppleWebKit/537.36 (KHTML, like Gecko) Chrome/124.0.0.0 Safari/537.36 SLBrowser/9.0.5.8121 SLBChan/33 SLBVPV/64-bit" version="24.7.12">
  <diagram name="第 1 页" id="1NC5Q8Jgs5ZrII9jlnl0">
    <mxGraphModel dx="2117" dy="541" grid="1" gridSize="10" guides="1" tooltips="1" connect="1" arrows="1" fold="1" page="1" pageScale="1" pageWidth="827" pageHeight="1169" math="0" shadow="0">
      <root>
        <mxCell id="0" />
        <mxCell id="1" parent="0" />
        <mxCell id="GGhZvQAViEIoxMl6PzaV-1" value="用户" style="shape=umlActor;verticalLabelPosition=bottom;verticalAlign=top;html=1;outlineConnect=0;" parent="1" vertex="1">
          <mxGeometry x="100" y="190" width="30" height="60" as="geometry" />
        </mxCell>
        <mxCell id="GGhZvQAViEIoxMl6PzaV-2" value="&lt;font style=&quot;font-size: 14px;&quot;&gt;&lt;b&gt;网站&lt;/b&gt;&lt;/font&gt;" style="ellipse;shape=cloud;whiteSpace=wrap;html=1;" parent="1" vertex="1">
          <mxGeometry x="500" y="180" width="120" height="80" as="geometry" />
        </mxCell>
        <mxCell id="GGhZvQAViEIoxMl6PzaV-5" value="" style="endArrow=classic;html=1;rounded=0;entryX=0.058;entryY=0.517;entryDx=0;entryDy=0;entryPerimeter=0;" parent="1" source="GGhZvQAViEIoxMl6PzaV-1" target="GGhZvQAViEIoxMl6PzaV-2" edge="1">
          <mxGeometry width="50" height="50" relative="1" as="geometry">
            <mxPoint x="320" y="250" as="sourcePoint" />
            <mxPoint x="370" y="200" as="targetPoint" />
          </mxGeometry>
        </mxCell>
        <mxCell id="GGhZvQAViEIoxMl6PzaV-6" value="&lt;font style=&quot;font-size: 14px;&quot;&gt;访问&lt;/font&gt;" style="edgeLabel;html=1;align=center;verticalAlign=middle;resizable=0;points=[];" parent="GGhZvQAViEIoxMl6PzaV-5" vertex="1" connectable="0">
          <mxGeometry x="-0.0162" relative="1" as="geometry">
            <mxPoint as="offset" />
          </mxGeometry>
        </mxCell>
        <mxCell id="GGhZvQAViEIoxMl6PzaV-7" value="" style="verticalLabelPosition=bottom;verticalAlign=top;html=1;shape=mxgraph.basic.no_symbol;fillColor=#FF3333;" parent="1" vertex="1">
          <mxGeometry x="300" y="450" width="70" height="70" as="geometry" />
        </mxCell>
        <mxCell id="GGhZvQAViEIoxMl6PzaV-8" value="" style="endArrow=classic;html=1;rounded=0;exitX=0.392;exitY=0.933;exitDx=0;exitDy=0;exitPerimeter=0;entryX=0.855;entryY=0.145;entryDx=0;entryDy=0;entryPerimeter=0;" parent="1" source="GGhZvQAViEIoxMl6PzaV-2" target="GGhZvQAViEIoxMl6PzaV-7" edge="1">
          <mxGeometry width="50" height="50" relative="1" as="geometry">
            <mxPoint x="510" y="450" as="sourcePoint" />
            <mxPoint x="560" y="400" as="targetPoint" />
          </mxGeometry>
        </mxCell>
        <mxCell id="GGhZvQAViEIoxMl6PzaV-10" value="" style="endArrow=classic;html=1;rounded=0;exitX=0.167;exitY=0.25;exitDx=0;exitDy=0;exitPerimeter=0;entryX=0.75;entryY=0.1;entryDx=0;entryDy=0;entryPerimeter=0;" parent="1" source="GGhZvQAViEIoxMl6PzaV-2" target="GGhZvQAViEIoxMl6PzaV-1" edge="1">
          <mxGeometry width="50" height="50" relative="1" as="geometry">
            <mxPoint x="380" y="200" as="sourcePoint" />
            <mxPoint x="430" y="150" as="targetPoint" />
          </mxGeometry>
        </mxCell>
        <mxCell id="GGhZvQAViEIoxMl6PzaV-11" value="" style="shape=note;whiteSpace=wrap;html=1;backgroundOutline=1;darkOpacity=0.05;" parent="1" vertex="1">
          <mxGeometry x="310" y="130" width="40" height="60" as="geometry" />
        </mxCell>
        <mxCell id="GGhZvQAViEIoxMl6PzaV-13" value="" style="endArrow=classic;html=1;rounded=0;exitX=0.5;exitY=1;exitDx=0;exitDy=0;exitPerimeter=0;" parent="1" source="GGhZvQAViEIoxMl6PzaV-11" target="GGhZvQAViEIoxMl6PzaV-7" edge="1">
          <mxGeometry width="50" height="50" relative="1" as="geometry">
            <mxPoint x="200" y="400" as="sourcePoint" />
            <mxPoint x="250" y="350" as="targetPoint" />
          </mxGeometry>
        </mxCell>
        <mxCell id="GGhZvQAViEIoxMl6PzaV-14" value="" style="shape=actor;whiteSpace=wrap;html=1;" parent="1" vertex="1">
          <mxGeometry x="170" y="230" width="30" height="40" as="geometry" />
        </mxCell>
        <mxCell id="GGhZvQAViEIoxMl6PzaV-16" value="" style="endArrow=classic;html=1;rounded=0;exitX=0.5;exitY=1;exitDx=0;exitDy=0;" parent="1" source="GGhZvQAViEIoxMl6PzaV-14" target="GGhZvQAViEIoxMl6PzaV-7" edge="1">
          <mxGeometry width="50" height="50" relative="1" as="geometry">
            <mxPoint x="180" y="430" as="sourcePoint" />
            <mxPoint x="230" y="380" as="targetPoint" />
          </mxGeometry>
        </mxCell>
        <mxCell id="GGhZvQAViEIoxMl6PzaV-17" value="1.通信内容可能被窃听&lt;br&gt;例如账号密码" style="shape=callout;whiteSpace=wrap;html=1;perimeter=calloutPerimeter;" parent="1" vertex="1">
          <mxGeometry x="100" y="330" width="120" height="80" as="geometry" />
        </mxCell>
        <mxCell id="GGhZvQAViEIoxMl6PzaV-18" value="3.访问的服务器容易被仿冒" style="shape=callout;whiteSpace=wrap;html=1;perimeter=calloutPerimeter;" parent="1" vertex="1">
          <mxGeometry x="560" y="260" width="120" height="80" as="geometry" />
        </mxCell>
        <mxCell id="GGhZvQAViEIoxMl6PzaV-19" value="2..传输的数据可能被篡改，植入垃圾广告" style="shape=callout;whiteSpace=wrap;html=1;perimeter=calloutPerimeter;" parent="1" vertex="1">
          <mxGeometry x="330" y="60" width="120" height="80" as="geometry" />
        </mxCell>
        <mxCell id="0weBZ4QUvLjOAuO4zsEM-2" value="可以对信息加密，防止被窃听。&lt;span style=&quot;background-color: rgb(51, 255, 51);&quot;&gt;混合加密&lt;/span&gt;" style="rounded=1;whiteSpace=wrap;html=1;" vertex="1" parent="1">
          <mxGeometry x="-70" y="360" width="140" height="80" as="geometry" />
        </mxCell>
        <mxCell id="0weBZ4QUvLjOAuO4zsEM-3" value="可以根据数据内容得到一个独一无二的标识，只有当标识可以对应上的时候才说明数据没有被篡改。&lt;br&gt;&lt;span style=&quot;background-color: rgb(51, 255, 51);&quot;&gt;摘要算法+数字签名&lt;/span&gt;" style="rounded=1;whiteSpace=wrap;html=1;" vertex="1" parent="1">
          <mxGeometry x="100" y="30" width="190" height="100" as="geometry" />
        </mxCell>
        <mxCell id="0weBZ4QUvLjOAuO4zsEM-4" value="可以给网站颁发一个公认证书，有证书说明网站是真的》&lt;br&gt;&lt;span style=&quot;background-color: rgb(51, 255, 51);&quot;&gt;数字证书&lt;/span&gt;" style="rounded=1;whiteSpace=wrap;html=1;" vertex="1" parent="1">
          <mxGeometry x="560" y="350" width="130" height="70" as="geometry" />
        </mxCell>
      </root>
    </mxGraphModel>
  </diagram>
</mxfile>
